# xmcd
# Track frame offsets:
# 150
# 15601
# 29684
# 49715
# 61143
# 77132
# 93263
# 106625
# 124537
# 140851
#
# Disc length: 2081 seconds
# Revision: 0
# Processed by: cddbd v1.4PL0 Copyright (c) Steve Scherf et al.
# Submitted via: VisiTrax 2.9.5.180 - For more info visit www.synapsa.com
#
DISCID=7b081f0a
DTITLE=Tim Holcomb - Cowboy on the run
DYEAR=1900
DGENRE=
TTITLE0=Cowboy on the run
TTITLE1=Love at first sight
TTITLE2=The story
TTITLE3=Gonna have love
TTITLE4=Take my hand
TTITLE5=One hell of a fall
TTITLE6=Train song
TTITLE7=Back to yesterday
TTITLE8=Along for the ride
TTITLE9=Another single day
EXTD=
EXTT0=
EXTT1=
EXTT2=
EXTT3=
EXTT4=
EXTT5=
EXTT6=
EXTT7=
EXTT8=
EXTT9=
PLAYORDER=
